<?xml version="1.0" encoding="utf-8"?>
<!-- Generator: Adobe Illustrator 25.4.1, SVG Export Plug-In . SVG Version: 6.00 Build 0)  -->
<svg version="1.1" xmlns="http://www.w3.org/2000/svg" xmlns:xlink="http://www.w3.org/1999/xlink" x="0px" y="0px"
	 viewBox="0 0 2800 2800" style="enable-background:new 0 0 2800 2800;" xml:space="preserve">
<style type="text/css">
	.st0{fill:#D8D4E8;}
	.st1{fill:#3A364C;}
	.st2{fill:#2D2B3D;}
	.st3{fill:#C55547;}
	.st4{fill:#BF2C2C;}
	.st5{fill:#ECE8F9;}
	.st6{fill:#13092D;}
	.st7{fill:#3F3E54;}
	.st8{fill:#F7A573;}
	.st9{fill:#F8E7DF;}
	.st10{fill:#7A5F48;}
	.st11{fill:#5E4736;}
	.st12{fill:#D8AB48;}
	.st13{fill:#FFFFFF;}
	.st14{clip-path:url(#SVGID_00000074423381006829286930000010096757563081940920_);}
	.st15{fill:#87AFAD;}
</style>
<g id="Layer_3">
</g>
<g id="Layer_2">
	<g>
		<path class="st0" d="M2170.03,1701.67c-7.41,0-14.87,0.21-22.36,0.65c-46.15-48.52-99.54-95.58-134.56-125.22
			c-0.04-5.08-0.1-8.99-0.14-11.57l-1.41-42.41l-27.93-25.66c-37.83-34.8-130.21-96.02-185.83-131.86l11.81-30.87
			c0.45-1.19,1.13-2.36,2.01-3.41c1.7-2.06,3.97-3.53,5.96-3.79c139.88-18.77,249.69-145.45,234.98-271.14
			c-2.96-25.11-9.53-46.75-18.48-65.32c91.71-32.49,176.16-95.78,171.95-206.93c-3.83-100.44-106.06-183.54-289.25-236.26
			c-15.73-99.47-64.39-297.36-174.3-397.64c-32.02-29.06-73.85-45.06-117.81-45.06c-26.62,0-53.3,6.1-77.2,17.66
			c-33.81,16.4-85.78,35.95-141.36,35.95c-55.69,0-107.5-19.52-141.29-35.97c-23.84-11.54-50.53-17.64-77.18-17.64
			c-44.07,0-85.93,16.04-117.88,45.15c-109.84,100.11-158.48,298.03-174.2,397.55c-183.38,52.74-285.61,135.87-289.24,236.28
			c-4.21,111.15,80.24,174.42,171.95,206.91c-8.96,18.58-15.53,40.24-18.49,65.37c-14.7,125.64,95.11,252.32,235.2,271.11
			c1.77,0.22,4.13,1.82,5.86,3.87c0.77,0.92,1.46,2.12,1.93,3.37l11.73,30.76c-55.47,35.67-147.55,96.62-185.87,131.89l-28.28,25.98
			l-0.91,38.49c0,0-0.14,10.12-0.19,15.19c-37.25,31.51-92.86,80.66-140.01,130.98l-6.73-6.41H244.35v895.65l127.68,167.77h2055.94
			l127.68-167.77v-895.65H2170.03z"/>
		<g>
			<g>
				<path class="st1" d="M1040.56,2070.3c-7.04-36.11-5.17-81.38-2.35-113l1.49-16.8l-96.76,13.84l-4.77-6.31
					c-34.85-45.77-58.08-143.07-65.42-273.95l-1.5-26.96l-20.52,17.56c-39.78,34.04-171.05,149.64-189.95,208.27
					c-5.61,19.4,15.86,75.21,67.74,144.34c116.94,156.08,300.15,277.13,490.09,323.79l10.75-23.97
					C1114.31,2237.95,1049.63,2117.32,1040.56,2070.3z"/>
				<path class="st1" d="M2139.06,1872.59c-18.48-57.9-149.86-173.78-189.7-207.91l-20.52-17.6l-1.5,26.99
					c-7.33,130.88-30.56,228.18-65.45,273.99l-4.73,6.27l-96.98-13.84l1.57,16.85c2.39,25.45,5.26,73.97-2.2,112.95
					c-8.82,45.33-75.8,168.31-190.68,247.21l10.72,23.99c190.57-46.29,374.51-167.5,492.01-324.21
					C2123.61,1947.79,2144.94,1891.97,2139.06,1872.59z"/>
				<path class="st1" d="M1104.08,1450.93l-1.83-22.07l-18.68,11.91c-31.41,20.02-137.34,88.26-181.82,125.35l-4.72,3.94l-0.08,6.16
					c-0.3,25.02-1.33,247.24,53.08,341.57l4.51,7.81l117.07-16.63l-2.86,17.77c-0.13,0.81-12.94,81.72-1.93,138.51
					c5.37,27.69,120.66,277.46,364.88,297.94l0.97,0.09l0.97-0.07c13.54-0.82,26.82-1.76,40.1-3.12l23.57-2.43l-14.28-18.91
					C1379.8,2202.03,1136.21,1841.83,1104.08,1450.93z"/>
				<path class="st1" d="M1733.26,2065.25c10.94-56.45-1.93-137.71-2.05-138.46l-2.8-17.82l116.99,16.63l4.51-7.8
					c54.81-94.62,53.43-316.6,53.09-341.61l-0.08-6.14l-4.72-3.93c-44.44-37.06-150.41-105.32-181.82-125.35l-18.68-11.92
					l-1.83,22.08c-23.4,284.59-162.54,557.59-275.15,736.5l-4.54,7.21l4.63,7.16c32.45,50.1,60.37,89.12,78.08,113.03l6.9,9.31
					l10.2-5.53C1657.08,2242.17,1727.1,2097.3,1733.26,2065.25z"/>
			</g>
			<path class="st2" d="M819.94,1674.82c0,0-10.09,241.03,112.58,353.9h49.85c0,0,68.84,209.51,239.43,299.39
				c0,0-136.48-152.15-148.96-245.81c-12.47-93.65-21.08-152.9-21.08-152.9l-113.6,18.62c0,0-46.01-131.13-52.39-273.21
				c-0.67-14.9-1.23-26.84-1.7-36.28c-3.99-80.6-1.17,20.96-1.17,20.96L819.94,1674.82z"/>
			<path class="st2" d="M1970.71,1674.82c0,0,10.09,241.03-112.58,353.9h-49.85c0,0-68.84,209.51-239.43,299.39
				c0,0,136.48-152.15,148.96-245.81c12.47-93.65,21.08-152.9,21.08-152.9l113.6,18.62c0,0,46.01-131.13,52.39-273.21
				c0.67-14.9,1.23-26.84,1.7-36.28c3.99-80.6,1.17,20.96,1.17,20.96L1970.71,1674.82z"/>
			<path class="st3" d="M1217.23,1480.48c-11.58-2.28-26.64-2.98-31.92,7.57c-3.59,7.19-0.27,15.8,3.4,22.96
				c38.8,75.67,119.83,127.86,204.78,131.88c84.94,4.03,170.55-40.26,216.34-111.92c52.51-82.18-125.95-36.61-160.11-27.23
				C1373.85,1524.59,1292.16,1495.24,1217.23,1480.48z"/>
			<path class="st0" d="M1551.85,1809.19c3.87,5.88,7.08,11.75,9.75,17.76c-14.02,35.13-28.98,69.32-44.48,102.45
				c-0.13-28.85-0.4-55.3-0.53-70.26c3.34-3.21,6.54-6.54,9.62-10.02C1537.29,1835.9,1545.7,1822.01,1551.85,1809.19z"/>
			<path class="st0" d="M1283.51,1859.15c-0.13,14.69-0.4,40.34-0.53,68.52c-15.36-32.72-30.19-66.65-44.08-101.65
				c2.54-5.61,5.61-11.22,9.22-16.83c6.28,12.82,14.56,26.71,25.78,39.94C1276.83,1852.6,1280.17,1855.94,1283.51,1859.15z"/>
			<path class="st4" d="M1512.31,1765.38c-4.14,12.56-12.29,31.92-26.98,49.29c-12.15,14.43-30.99,23.24-51.29,24.31
				c-1.6,0-4.68,0.4-8.82,0.93c-8.41,1.07-15.9,1.74-22.57,2.27v-0.27c-14.56-1.47-26.85-2.54-36.6-2.94
				c-20.44-1.07-39.14-9.88-51.29-24.31c-14.69-17.36-22.84-36.73-26.98-49.29c37.13-32.86,83.75-59.57,112.2-73.46
				C1428.56,1705.81,1475.18,1732.52,1512.31,1765.38z"/>
			<path class="st4" d="M1463.42,1888.13c0.27,44.88,0.67,114.47-0.27,147.6c-20.97,38.47-42.07,74.8-62.91,108.59
				c-20.57-33.66-42.07-70.39-63.31-109.93c-0.93-32.99-0.67-99.64-0.27-143.86c14.16,4.41,30.05,6.01,46.35,6.01
				c16.56,0,33.39-1.74,48.89-3.61c2.27-0.27,4.01-0.53,4.68-0.67C1445.79,1891.87,1454.74,1890.4,1463.42,1888.13z"/>
			<path class="st5" d="M1326.92,1671.21c-36.2,22.04-80.68,53.96-111.53,92.56c-28.32-80.01-50.89-164.16-63.45-249.91
				C1177.32,1566.23,1228.07,1635.68,1326.92,1671.21z"/>
			<path class="st5" d="M1473.18,1671.21c99.38-35.8,150.13-105.79,175.38-158.28c-12.42,86.15-35,170.7-63.45,251.38
				C1554.12,1725.44,1509.51,1693.38,1473.18,1671.21z"/>
			<path class="st6" d="M1412.4,2404.25v0.4c-4.14,0-8.28-0.13-12.42-0.13c-4.14,0-8.15,0.13-12.42,0.13v-0.4
				c-320.57-9.22-569.28-195.81-696.84-370.66c-25.78-35.4-84.02-123.15-67.99-173.37c24.98-77.47,187.93-215.18,234.28-253.25
				c-0.27-24.58,0.13-41.01,0.13-43.54l0.27-11.35l8.28-7.61c50.22-46.22,226.94-157.48,237.09-162.69l37.13-18.43l1.47,41.41
				c0.53,12.96,1.47,25.91,2.54,39l37.27-6.01c1.2,6.68,29.79,165.09,218.79,197.42c190.47-32.59,218.65-195.68,218.79-197.42
				l37.4,6.01c1.07-12.96,1.87-26.05,2.4-39l26.45,0.93l12.29-23.91c10.15,5.21,186.86,116.61,236.95,162.69l8.28,7.61l0.4,11.35
				c0,2.54,0.4,18.97,0.13,43.54c46.35,38.07,209.3,175.78,234.15,253.25c16.16,50.22-42.07,137.98-67.85,173.37
				c-105.65,144.79-294.26,297.59-538.15,351.16l-40.34,14.83c-23.37,3.47-46.08,5.21-67.85,5.21c-10.69,0-21.1-0.53-31.52-1.34
				C1425.22,2403.84,1418.81,2404.11,1412.4,2404.25z M2060.88,2009.28c56.1-74.93,68.52-122.48,65.45-132.64
				c-14.16-44.35-108.99-136.11-185.66-201.82c-5.21,92.96-21.24,219.72-68.12,281.3l-9.48,12.56l-88.02-12.56
				c2.94,31.52,4.94,78.41-2.4,116.74c-9.22,47.42-76.8,173.64-196.21,255.65C1793.61,2275.75,1963.65,2138.98,2060.88,2009.28z
				 M1838.36,1911.1c44.88-77.47,52.36-255.79,51.29-334.73c-39.4-32.86-129.56-91.9-180.45-124.35
				c-23.37,284.24-159.88,556.19-277.16,742.52c30.19,46.62,57.3,84.95,77.6,112.33c134.1-72.66,204.5-212.91,210.51-244.17
				c10.42-53.7-2-133.04-2.14-133.84l-5.61-35.66L1838.36,1911.1z M1648.55,1512.93c-25.24,52.49-76,122.48-175.38,158.28
				c36.33,22.17,80.94,54.23,111.93,93.1C1613.56,1683.63,1636.13,1599.08,1648.55,1512.93z M1561.6,1826.95
				c-2.67-6.01-5.88-11.89-9.75-17.76c-6.14,12.82-14.56,26.71-25.65,39.94c-3.07,3.47-6.28,6.81-9.62,10.02
				c0.13,14.96,0.4,41.41,0.53,70.26C1532.61,1896.28,1547.57,1862.08,1561.6,1826.95z M1485.33,1814.67
				c14.69-17.36,22.84-36.73,26.98-49.29c-37.13-32.86-83.75-59.57-112.33-73.46c-28.45,13.89-75.07,40.61-112.2,73.46
				c4.14,12.56,12.29,31.92,26.98,49.29c12.15,14.43,30.85,23.24,51.29,24.31c9.75,0.4,22.04,1.47,36.6,2.94v0.27
				c6.68-0.53,14.16-1.2,22.57-2.27c4.14-0.53,7.21-0.93,8.82-0.93C1454.34,1837.91,1473.18,1829.09,1485.33,1814.67z
				 M1463.16,2035.73c0.93-33.13,0.53-102.72,0.27-147.6c-8.68,2.27-17.63,3.74-26.85,4.14c-0.67,0.13-2.4,0.4-4.68,0.67
				c-15.49,1.87-32.32,3.61-48.89,3.61c-16.3,0-32.19-1.6-46.35-6.01c-0.4,44.21-0.67,110.86,0.27,143.86
				c21.24,39.54,42.74,76.27,63.31,109.93C1421.08,2110.52,1442.19,2074.19,1463.16,2035.73z M1432.84,2349.88
				c13.36-0.8,26.45-1.74,39.54-3.07c-93.9-124.35-348.75-495.15-381.61-894.79c-50.89,32.46-141.05,91.5-180.45,124.35
				c-0.94,78.94,6.68,257.39,51.29,334.73l126.09-17.9l-5.74,35.66c-0.13,0.8-12.42,80.14-2,133.84
				C1085.96,2093.69,1198.82,2330.25,1432.84,2349.88z M1215.38,1763.78c30.85-38.6,75.33-70.53,111.53-92.56
				c-98.84-35.53-149.6-104.99-174.98-157.35C1164.49,1599.62,1187.07,1683.77,1215.38,1763.78z M1282.97,1927.67
				c0.13-28.18,0.4-53.83,0.53-68.52c-3.34-3.21-6.68-6.54-9.62-10.02c-11.22-13.22-19.5-27.11-25.78-39.94
				c-3.61,5.61-6.68,11.22-9.22,16.83C1252.78,1861.02,1267.61,1894.94,1282.97,1927.67z M1221.8,2328.11
				c-119.41-82.15-185.13-207.43-194.34-255.25c-7.48-38.33-5.34-85.22-2.54-116.74l-87.89,12.56l-9.48-12.56
				c-46.88-61.58-62.91-188.33-68.12-281.3c-76.8,65.72-171.5,157.48-185.8,201.82c-2.94,10.15,9.35,57.7,65.58,132.64
				C836.18,2138.71,1005.41,2274.95,1221.8,2328.11z"/>
			<g>
				<path class="st2" d="M2091.88,781.05c-28.19-142.14-471.85-219.67-691.9-219.67s-663.72,77.53-691.9,219.69
					c-4.57,23.14-0.07,44.32,13.41,62.96c36.08,49.93,130.24,68.47,183.16,75.08l16.66,2.09L917.32,883
					c-1.34-13.08,5.11-25.93,16.38-32.71c132.36-78.85,314.2-90.63,410.82-90.63c33.42,0,54.28,1.49,54.48,1.5l0.97,0.08l0.97-0.08
					c0.21-0.01,21.07-1.5,54.51-1.5c96.66,0,278.58,11.78,410.89,90.59c11.23,6.77,17.67,19.66,16.45,32.7
					c-0.67,6.22-1.46,13.62-2.4,21.3l-2.05,16.97l16.97-2.11c52.96-6.6,147.2-25.12,183.24-75.08
					C2092.01,825.38,2096.5,804.19,2091.88,781.05z"/>
			</g>
			<g>
				<path class="st7" d="M708.07,824.1c28.19-142.15,471.85-219.69,691.9-219.69s663.72,77.53,691.9,219.67
					c0.14,0.72,0.2,1.42,0.33,2.14c1.95-10.12,1.89-20.74-0.33-31.82c-28.19-142.14-471.85-219.67-691.9-219.67
					s-663.72,77.53-691.9,219.69c-2.18,11.02-2.23,21.59-0.3,31.66C707.89,825.41,707.94,824.77,708.07,824.1z"/>
			</g>
			<g>
				<path class="st8" d="M1496.42,1287.46c0,0-8.68,18.57-40.07,14.29c-31.52-4.27-56.37-14.29-56.37-14.29
					s-24.71,10.02-56.23,14.29c-31.52,4.27-40.07-14.29-40.07-14.29c8.55,41.41,48.09,51.42,48.09,51.42l48.22-11.35l48.22,11.35
					C1448.2,1338.89,1487.87,1328.87,1496.42,1287.46z M1399.98,1185.82c0,20.44,54.63,82.68,161.22,111.26
					c53.43,14.29,89.89,14.69,114.6,9.75c-12.15,35.66-22.84,69.59-27.78,90.83c-14.29,62.91-92.96,57.17-92.96,57.17
					c-37.27-14.29-79.61-24.31-155.08-24.31c-75.33,0-117.81,10.02-154.94,24.31c0,0-78.81,5.74-93.1-57.17
					c-4.81-21.24-15.63-55.16-27.78-90.83c24.84,4.94,61.18,4.54,114.6-9.75C1345.35,1268.5,1399.98,1206.25,1399.98,1185.82z"/>
			</g>
			<g>
				<path class="st8" d="M1275.09,1101.4c34.33-35.8,57.17-32.99,57.17-32.99C1275.09,1048.37,1275.09,1101.4,1275.09,1101.4z
					 M1342.68,1047.44c5.08-9.48,8.41-20.17,10.42-30.85c8.95-49.02-8.01-100.31-44.75-133.84c-41.01-37.53-88.69-45.68-88.69-45.68
					c25.11,30.45,43.41,57.44,45.55,60.77c-104.85-79.74-213.45,0.27-213.45,0.27c25.78,119.55,161.75,100.85,217.05,87.89
					c9.75-2.27,17.76,7.88,13.49,16.96c-11.09,23.78-20.84,34.46-49.02,57.3c4.27-0.94,73.73-18.83,98.98-66.25
					C1344.95,1011.78,1343.75,1041.43,1342.68,1047.44z M1491.34,1119.97c-14.96-0.67-34.33,13.36-42.48,19.63
					c-14.16,10.82-30.99,17.5-48.75,17.63h-0.13h-0.13c-17.76-0.13-34.59-6.81-48.62-17.63c-8.15-6.28-27.52-20.3-42.61-19.63
					c0,0,12.69,17.63,27.78,35.66c-28.32-7.08-74.13-8.01-132.77,27.25c-51.02,30.85-84.42,44.08-107.26,45.15
					c-14.16-38.87-25.24-67.99-25.24-67.99c7.88-14.43,55.03,0,55.03,0c-4.27-32.99-34.86-33.66-65.85-58.64
					c-46.22-37.53-72.93-135.57-77.74-189c0-1.87,0-3.74-0.13-5.48c-0.8-18.7-2.27-133.3,417.54-133.3s418.48,114.6,417.67,133.3
					c-0.13,1.74-0.13,3.61-0.27,5.48c-4.68,53.43-31.52,151.47-77.74,189c-30.85,24.98-61.58,25.65-65.85,58.64
					c0,0,47.28-14.43,55.16,0c0,0-11.22,29.12-25.24,67.99c-22.97-1.07-56.23-14.29-107.26-45.15
					c-58.64-35.26-104.45-34.33-132.77-27.25C1478.65,1137.6,1491.34,1119.97,1491.34,1119.97z M1467.83,1068.41
					c0,0,22.84-2.81,57.17,32.99C1525,1101.4,1525,1048.37,1467.83,1068.41z M1467.83,994.01c25.24,47.42,94.57,65.32,98.84,66.25
					c-28.18-22.84-37.8-33.53-48.89-57.3c-4.27-9.08,3.74-19.23,13.49-16.96c55.3,12.96,191.27,31.66,216.92-87.89
					c0,0-108.59-80.01-213.45-0.27c2.14-3.34,20.44-30.32,45.55-60.77c0,0-47.55,8.15-88.69,45.68
					c-36.73,33.53-53.56,84.82-44.61,133.84c2,10.69,5.21,21.37,10.29,30.85C1456.21,1041.43,1455.14,1011.78,1467.83,994.01z"/>
			</g>
			<g>
				<g>
					<path class="st3" d="M1183.44,1018.36c148.83,5.72,135.48-53.99,135.48-53.99l-43.83,13.91c0,0-86.24,9.54-89.9,9.54
						c-3.66,0-91.43-39.16-91.43-39.16l-42-50.56C1051.76,898.11,1034.61,1012.63,1183.44,1018.36z"/>
				</g>
				<g>
					<path class="st3" d="M1070.86,1125.21c-32.39-2.5-56.7-76.66-56.7-76.66c-18.54,41.65,28.08,172.07,60.79,147.26
						c32.71-24.81,60.79-10,60.79-10C1135.26,1153.73,1103.25,1127.71,1070.86,1125.21z"/>
				</g>
				<g>
					<path class="st3" d="M1616.52,1018.36c148.83-5.72,131.68-120.25,131.68-120.25l-42,50.56c0,0-87.78,39.16-91.44,39.16
						c-3.66,0-89.9-9.54-89.9-9.54l-43.83-13.91C1481.04,964.37,1467.68,1024.08,1616.52,1018.36z"/>
				</g>
				<g>
					<path class="st3" d="M1529.38,1233l-129.4-54.86l-129.4,54.86l-106.49,27.76l-39.93,54.17c0,0,68.29,37.14,138.73,14.62
						c17.08-5.46,36.46-0.37,45.75,14.97l0.27,0.45c18.17,9.78,46.99,17.95,91.07,13.1c44.09,4.85,72.9-3.32,91.07-13.1
						c0.09-0.15,0.18-0.3,0.27-0.45c9.29-15.34,28.67-20.43,45.75-14.97c70.43,22.53,138.73-14.62,138.73-14.62l-39.93-54.17
						L1529.38,1233z M1455.48,1321.87l-55.5-6.94l-55.5,6.94c0,0-66.59-29.9-9.66-44.59c56.93-14.69,65.16-34.88,65.16-34.88
						s8.23,20.2,65.16,34.88C1522.07,1291.97,1455.48,1321.87,1455.48,1321.87z"/>
				</g>
				<g>
					<path class="st3" d="M1399.98,773.62c0,0-268.06-22.44-407.35,63.45l9.44,34.24c11.41-1.25,57.26-74.77,397.91-74.77
						s386.5,73.52,397.91,74.77l9.45-34.24C1668.04,751.18,1399.98,773.62,1399.98,773.62z"/>
				</g>
				<g>
					<path class="st3" d="M1729.1,1125.21c-32.39,2.5-64.4,28.52-64.88,60.6c0,0,28.08-14.81,60.79,10
						c32.71,24.81,79.33-105.61,60.79-147.26C1785.8,1048.56,1761.49,1122.71,1729.1,1125.21z"/>
				</g>
			</g>
			<g>
				<path class="st5" d="M1784.66,513.69c6.81,30.59,11.09,56.23,13.36,72.66c-107.79-21.5-240.56-34.59-398.04-34.59
					c-157.35,0-290.25,13.09-397.91,34.59c2.14-16.43,6.54-42.07,13.22-72.66c49.96-22.71,187.13-75.47,384.68-75.47
					S1734.84,490.98,1784.66,513.69z"/>
			</g>
			<g>
				<path class="st1" d="M1657.37,236.93c60.51,55.16,98.17,160.15,119.55,244.03c-62.78-26.18-193.94-69.46-376.94-69.46
					s-314.02,43.28-376.94,69.46c21.37-83.88,59.17-188.87,119.68-244.03c17.1-15.63,43.14-19.1,64.78-8.55
					c45.01,21.77,114.87,47.68,192.47,47.68c77.74,0,147.6-25.91,192.47-47.68C1614.23,217.83,1640.27,221.31,1657.37,236.93z"/>
			</g>
			<g>
				<path class="st8" d="M916.05,1125.58c2.67-1.2,21.24-8.95,55.57,2.94c19.1,6.68,32.59,35.53,41.14,61.98
					c7.21,22.57-14.69,43.81-36.87,35.8c-39.67-14.56-92.7-44.75-115.94-106.32c-39.27-104.45,61.58-124.49,61.58-124.49
					c-58.64,31.52-47.15,87.22-47.15,87.22c4.94-19.1,13.49-31.39,23.37-39.27c34.86-27.52,78.14,23.51,47.28,55.7
					C931.68,1113.16,918.06,1123.97,916.05,1125.58z"/>
			</g>
			<g>
				<path class="st8" d="M1878.43,995.48c0,0,100.85,20.04,61.58,124.49c-23.11,61.58-76.14,91.76-115.81,106.32
					c-22.17,8.01-44.21-13.22-36.87-35.8c8.55-26.45,22.04-55.3,41.01-61.98c34.46-11.89,52.89-4.14,55.57-2.94
					c-2-1.6-15.49-12.42-28.98-26.45c-30.72-32.19,12.42-83.21,47.42-55.7c9.88,7.88,18.43,20.17,23.37,39.27
					C1925.71,1082.7,1937.2,1027,1878.43,995.48z"/>
			</g>
			<g>
				<path class="st6" d="M1525,1101.4c-34.33-35.8-57.17-32.99-57.17-32.99C1525,1048.37,1525,1101.4,1525,1101.4z"/>
			</g>
			<g>
				<path class="st6" d="M1531.28,986c-9.75-2.27-17.76,7.88-13.49,16.96c11.09,23.78,20.7,34.46,48.89,57.3
					c-4.27-0.94-73.6-18.83-98.84-66.25c-12.69,17.76-11.62,47.42-10.55,53.43c-5.08-9.48-8.28-20.17-10.29-30.85
					c-8.95-49.02,7.88-100.31,44.61-133.84c41.14-37.53,88.69-45.68,88.69-45.68c-25.11,30.45-43.41,57.44-45.55,60.77
					c104.85-79.74,213.45,0.27,213.45,0.27C1722.55,1017.65,1586.58,998.95,1531.28,986z"/>
			</g>
			<g>
				<path class="st6" d="M1496.42,1287.46c-8.55,41.41-48.22,51.42-48.22,51.42l-48.22-11.35l-48.22,11.35
					c0,0-39.54-10.02-48.09-51.42c0,0,8.55,18.57,40.07,14.29c31.52-4.27,56.23-14.29,56.23-14.29s24.84,10.02,56.37,14.29
					C1487.73,1306.03,1496.42,1287.46,1496.42,1287.46z"/>
			</g>
			<g>
				<path class="st6" d="M1308.35,882.75c36.73,33.53,53.7,84.82,44.75,133.84c-2,10.69-5.34,21.37-10.42,30.85
					c1.07-6.01,2.27-35.66-10.42-53.43c-25.24,47.42-94.7,65.32-98.98,66.25c28.18-22.84,37.93-33.53,49.02-57.3
					c4.27-9.08-3.74-19.23-13.49-16.96c-55.3,12.96-191.27,31.66-217.05-87.89c0,0,108.59-80.01,213.45-0.27
					c-2.14-3.34-20.44-30.32-45.55-60.77C1219.66,837.07,1267.34,845.21,1308.35,882.75z"/>
			</g>
			<g>
				<path class="st6" d="M1332.26,1068.41c0,0-22.84-2.81-57.17,32.99C1275.09,1101.4,1275.09,1048.37,1332.26,1068.41z"/>
			</g>
			<g>
				<path class="st6" d="M945.04,1099.13c30.85-32.19-12.42-83.21-47.28-55.7c-9.88,7.88-18.43,20.17-23.37,39.27
					c0,0-11.49-55.7,47.15-87.22c0,0-100.85,20.04-61.58,124.49c23.24,61.58,76.27,91.76,115.94,106.32
					c22.17,8.01,44.08-13.22,36.87-35.8c-8.55-26.45-22.04-55.3-41.14-61.98c-34.33-11.89-52.89-4.14-55.57-2.94
					C918.06,1123.97,931.68,1113.16,945.04,1099.13z M1940,1119.97c39.27-104.45-61.58-124.49-61.58-124.49
					c58.77,31.52,47.28,87.22,47.28,87.22c-4.94-19.1-13.49-31.39-23.37-39.27c-35-27.52-78.14,23.51-47.42,55.7
					c13.49,14.02,26.98,24.84,28.98,26.45c-2.67-1.2-21.1-8.95-55.57,2.94c-18.97,6.68-32.46,35.53-41.01,61.98
					c-7.35,22.57,14.69,43.81,36.87,35.8C1863.87,1211.73,1916.9,1181.54,1940,1119.97z M1561.2,1297.08
					c-106.59-28.58-161.22-90.83-161.22-111.26c0,20.44-54.63,82.68-161.22,111.26c-53.43,14.29-89.76,14.69-114.6,9.75
					c12.16,35.66,22.97,69.59,27.78,90.83c14.29,62.91,93.1,57.17,93.1,57.17c37.13-14.29,79.61-24.31,154.94-24.31
					c75.47,0,117.81,10.02,155.08,24.31c0,0,78.67,5.74,92.96-57.17c4.94-21.24,15.63-55.16,27.78-90.83
					C1651.09,1311.77,1614.63,1311.37,1561.2,1297.08z M1399.98,222.64c67.59,0,129.3-22.97,169.23-42.34
					c41.14-19.9,90.96-12.96,124.22,17.23c112.87,102.98,154.94,341.14,159.22,400.98c184.46,45.41,280.76,117.81,283.44,188.07
					c5.74,151.47-248.98,168.83-248.98,168.83s84.42,10.95,95.9,108.46c10.55,90.16-75.47,186.33-180.05,200.36
					c-18.3,2.4-34.86,12.15-46.62,26.31c-5.34,6.41-9.62,13.76-12.56,21.5l-41.81,109.26c-7.08,18.57-19.37,34.86-35.13,47.02
					c-46.62,35.66-152.27,105.25-266.87,105.25s-220.12-69.59-266.74-105.25c-15.89-12.15-28.05-28.45-35.26-47.02l-41.67-109.26
					c-2.94-7.75-7.21-15.09-12.56-21.5c-11.89-14.16-28.32-23.91-46.62-26.31c-104.59-14.02-190.6-110.2-180.05-200.36
					c11.49-97.51,95.9-108.46,95.9-108.46s-254.72-17.36-248.98-168.83c2.54-70.26,98.84-142.65,283.44-188.07
					c4.27-59.84,46.22-298,159.22-400.98c33.13-30.19,83.08-37.13,124.22-17.23C1270.68,199.67,1332.53,222.64,1399.98,222.64z
					 M1399.98,411.51c182.99,0,314.16,43.28,376.94,69.46c-21.37-83.88-59.04-188.87-119.55-244.03
					c-17.1-15.63-43.14-19.1-64.92-8.55c-44.88,21.77-114.74,47.68-192.47,47.68c-77.6,0-147.46-25.91-192.47-47.68
					c-21.64-10.55-47.68-7.08-64.78,8.55c-60.51,55.16-98.31,160.15-119.68,244.03C1085.96,454.79,1216.99,411.51,1399.98,411.51z
					 M1399.98,747.84c0,0,285.57-20.84,473.24,90.96c15.76,9.48,24.58,27.25,22.84,45.55c-0.67,6.28-1.47,13.76-2.4,21.5
					c65.32-8.15,202.36-35.66,185.13-122.22c-24.84-125.29-438.78-208.9-678.8-208.9c-239.89,0-653.96,83.62-678.8,208.9
					c-17.1,86.55,119.95,114.07,185.13,122.22c-0.8-7.75-1.6-15.23-2.27-21.5c-1.87-18.3,7.08-36.06,22.84-45.55
					C1114.54,727,1399.98,747.84,1399.98,747.84z M1399.98,551.76c157.48,0,290.25,13.09,398.04,34.59
					c-2.27-16.43-6.54-42.07-13.36-72.66c-49.82-22.71-187.13-75.47-384.68-75.47s-334.73,52.76-384.68,75.47
					c-6.68,30.59-11.09,56.23-13.22,72.66C1109.73,564.85,1242.63,551.76,1399.98,551.76z M1463.69,1155.63
					c28.32-7.08,74.13-8.01,132.77,27.25c51.02,30.85,84.28,44.08,107.26,45.15c14.02-38.87,25.24-67.99,25.24-67.99
					c-7.88-14.43-55.16,0-55.16,0c4.27-32.99,35-33.66,65.85-58.64c46.22-37.53,73.06-135.57,77.74-189
					c0.13-1.87,0.13-3.74,0.27-5.48c0.8-18.7,2.14-133.3-417.67-133.3s-418.34,114.6-417.54,133.3c0.13,1.74,0.13,3.61,0.13,5.48
					c4.81,53.43,31.52,151.47,77.74,189c30.99,24.98,61.58,25.65,65.85,58.64c0,0-47.15-14.43-55.03,0c0,0,11.09,29.12,25.24,67.99
					c22.84-1.07,56.23-14.29,107.26-45.15c58.64-35.26,104.45-34.33,132.77-27.25c-15.09-18.03-27.78-35.66-27.78-35.66
					c15.09-0.67,34.46,13.36,42.61,19.63c14.02,10.82,30.85,17.5,48.62,17.63h0.13h0.13c17.76-0.13,34.59-6.81,48.75-17.63
					c8.15-6.28,27.52-20.3,42.48-19.63C1491.34,1119.97,1478.65,1137.6,1463.69,1155.63z"/>
			</g>
			<g>
				<g>
					<path class="st5" d="M1113.32,918.18c0,0,8.59,35.78,72.99,44.36c64.4,8.59,99.24-15.88,99.24-15.88
						S1186.3,856.64,1113.32,918.18z"/>
				</g>
			</g>
			<g>
				<path class="st6" d="M1342.73,1047.42c-0.17,0.32-0.26,0.68-0.43,1C1342.4,1048.8,1342.56,1048.38,1342.73,1047.42z"/>
			</g>
			<g>
				<g>
					<path class="st5" d="M1686.72,918.18c0,0-8.59,35.78-72.99,44.36c-64.4,8.59-99.24-15.88-99.24-15.88
						S1613.73,856.64,1686.72,918.18z"/>
				</g>
			</g>
			<g>
				<path class="st6" d="M1457.31,1047.42c0.17,0.32,0.26,0.68,0.43,1C1457.64,1048.8,1457.47,1048.38,1457.31,1047.42z"/>
			</g>
			<g>
				<path class="st6" d="M1006.63,837.08c0,0,35.78,142.4,7.16,245.56L938.9,922.47L1006.63,837.08z"/>
			</g>
			<g>
				<path class="st6" d="M1793.41,837.08c0,0-35.78,142.4-7.16,245.56l74.88-160.17L1793.41,837.08z"/>
			</g>
			<g>
				<path class="st9" d="M1098.4,1035.66c-14.16-7.24-31.03,4.8-27.92,20.39c1.81,9.08,5.84,18.5,13.74,26.59
					c20.02,20.49,62.25,36.93,97.42,28.95c13.58-3.08,21.94-16.8,18.51-30.3l0,0c-2.3-9.03-9.45-16.04-18.56-18.01
					C1161.98,1059.03,1126.47,1050.03,1098.4,1035.66z"/>
			</g>
			<g>
				<path class="st9" d="M1701.33,1035.66c14.16-7.24,31.03,4.8,27.92,20.39c-1.81,9.08-5.84,18.5-13.74,26.59
					c-20.02,20.49-62.25,36.93-97.42,28.95c-13.58-3.08-21.94-16.8-18.51-30.3l0,0c2.3-9.03,9.45-16.04,18.56-18.01
					C1637.76,1059.03,1673.26,1050.03,1701.33,1035.66z"/>
			</g>
			<g>
				<path class="st0" d="M1399.98,520.44c-154.91,0-286.01,12.73-392.77,33.65c-2.31,12.81-4.04,23.79-5.14,32.27
					c107.66-21.5,240.56-34.6,397.91-34.6c157.48,0,290.25,13.09,398.04,34.6c-1.17-8.49-2.89-19.47-5.21-32.28
					C1685.94,533.16,1554.99,520.44,1399.98,520.44z"/>
			</g>
		</g>
		<g>
			<path class="st6" d="M1437.67,1301.18c-15.41-3.1-27.66-10.97-35.45-22.76c-8.83-13.37-11.18-30.43-6.97-50.74l2.3-11.11
				l9.59-6.07c65.99-41.65,286.49-176.5,354.14-162.88c4.62,0.93,8.92,2.43,12.75,4.46c31.3,16.57,51.06,43.9,54.26,75.01
				c3,29.23-9.41,58.43-33.21,78.15c-37.55,31.12-258.09,81.21-324.78,95.84C1467.33,1301.69,1453.17,1304.3,1437.67,1301.18z"/>
			<path class="st10" d="M1421.39,1233.1c0,0,290.73-183.54,340.14-157.4c49.41,26.15,51.99,79.58,16.51,108.97
				s-313.46,90.3-313.46,90.3S1410.39,1286.22,1421.39,1233.1z"/>
			<path class="st11" d="M1426.75,1233.1c0,0,10.05,26.97,37.72,18.38c0,0-4.6-5.18-10.49-18.38c0,0,20.81,28.4,76.24,10.04
				c55.43-18.37,203.31-82.29,203.31-82.29s-21.94-24.98-8.59-59.24c0,0,10.49,53.51,47.7,55.42c37.21,1.91,33.11-34.91,33.11-34.91
				s7.03,60.64-22.96,70.23c-20.86,6.67-111.28,41.96-114.14,41.96s-132.8,33.12-138.43,36.12c-5.63,3-61.93,11.59-64.79,12.54
				c-1.52,0.51-12.38-0.61-22.21-1.76c-13.85-1.63-25.75-11.98-27.51-25.81C1414.7,1247.51,1416.89,1239.19,1426.75,1233.1z"/>
			<path class="st12" d="M1757.49,1072.06c0,0-18.6,34.23,0,51.49c18.6,17.25,35.05,6.9,36.84-10.35
				C1796.13,1095.96,1777.52,1056.75,1757.49,1072.06z"/>
			<path class="st5" d="M1815.15,1042.61c0,0,9.39-77.32,85.26-69.38c75.87,7.94,287.51-13.62,258.69-128.05
				c-28.82-114.43-131.5-279.18,1.4-424.1s78.39-186.27,56.8-230.57c-21.59-44.3-18.97-125.88,48.23-150.41
				c0,0-75.61,84.05,14.86,189.99c90.47,105.94,112.11,167.42,69.46,264.86c-42.65,97.44,32.04,194.54,32.04,194.54
				s-25.96-68.35,25.29-161.65c51.25-93.31,41.09-141.94,18.08-181.94c-23.01-40,26.83-126.02,26.83-126.02s-39.91,54.5,0.34,118.78
				s89.69,333.81,10,489.72c-79.69,155.91-161.45,93.18-188.44,161.95c-26.99,68.77-95.46,149.25-224.34,119.5
				S1868.28,964.21,1815.15,1042.61z"/>
			<path class="st5" d="M2191.31,1133.89c0,0,42.48-29.97,103.41,0.91c60.93,30.87,112.26-8.02,112.26-8.02
				s-10.48,85.25-94.36,55.65C2228.73,1152.82,2232.13,1125.39,2191.31,1133.89z"/>
		</g>
		<g>
			<path class="st6" d="M2181.05,1765.53c-27.7,0-53.88,3.13-78.35,9.34v-9.53l-260.63,0.39v-0.2h-666.49
				c-32.15,0-62.25,4.21-90,12.58v-12.58H766.4l-64.21,61.16l-64.2-61.16H319.23v810.25l95.47,125.44h1992.64l95.47-125.44v-810.25
				H2181.05z"/>
			<g>
				<polygon class="st13" points="660.73,1959.57 540.42,1841.02 383.09,1841.02 383.09,2472.54 512.21,2472.54 512.21,1973.67 
					595.95,2065.78 595.95,2472.54 725.51,2472.54 725.51,2065.78 809.25,1973.67 809.25,2472.54 938.81,2472.54 938.81,1841.02 
					781.04,1841.02 				"/>
				<path class="st13" d="M1077.86,1860.41c-23.07,12.93-40.77,30.27-53.1,52.01c-12.34,21.74-18.51,45.83-18.51,72.27v190.82h-47.6
					l47.6,109.29v187.74h129.56V2272.9h0.44l108.85,7.06v192.58h129.56v-631.52h-212.86
					C1128.9,1841.02,1100.91,1847.49,1077.86,1860.41z M1244.66,1947.67h0.44v227.84h-109.29v-162.62c0-32.02,6.32-51.4,18.95-58.16
					c9.98-5.29,28.79-7.93,56.41-7.93C1221.15,1946.8,1232.32,1947.08,1244.66,1947.67z"/>
				<polygon class="st13" points="1739.56,1841.02 1438.13,1841.02 1438.13,2175.51 1390.53,2175.51 1438.13,2284.8 
					1438.13,2472.54 1567.69,2472.54 1567.69,2272.9 1739.56,2284.8 1739.56,2175.51 1567.69,2175.51 1567.69,1938.41 
					1739.56,1950.31 1739.56,1849.48 1774.38,1928.72 1820.65,1926.51 1820.65,2384.41 1736.04,2390.57 1774.38,2472.54 
					2015.44,2472.54 2015.44,2381.77 1950.22,2380.44 1950.22,1926.51 2015.44,1929.16 2015.44,1841.02 1739.56,1841.46 				"/>
				<path class="st13" d="M2226.09,1841.02c-32.9,0-60.89,6.46-83.95,19.38c-23.07,12.93-40.77,30.27-53.1,52.01
					c-12.34,21.74-18.51,45.83-18.51,72.27v190.82h-47.6l47.6,109.29v187.74h129.56V2272.9h0.44l108.85,7.06v192.58h129.56v-631.52
					H2226.09z M2309.39,2175.51h-109.29v-162.62c0-32.02,6.32-51.4,18.95-58.16c9.98-5.29,28.79-7.93,56.41-7.93
					c9.98,0,21.15,0.29,33.49,0.87h0.44V2175.51z"/>
			</g>
			<g>
				<defs>
					<rect id="SVGID_1_" y="2137.38" width="2800" height="567.25"/>
				</defs>
				<clipPath id="SVGID_00000146474453554233647600000010096909013897407136_">
					<use xlink:href="#SVGID_1_"  style="overflow:visible;"/>
				</clipPath>
				<g style="clip-path:url(#SVGID_00000146474453554233647600000010096909013897407136_);">
					<polygon class="st15" points="660.73,1995.43 529.95,1866.57 408.64,1866.57 408.64,2447 486.67,2447 486.67,1907.61 
						621.5,2055.9 621.5,2447 699.97,2447 699.97,2055.9 834.79,1907.61 834.79,2447 913.27,2447 913.27,1866.57 791.51,1866.57 
											"/>
					<path class="st15" d="M1090.35,1882.68c-19.1,10.71-33.29,24.56-43.38,42.35c-10.22,18-15.18,37.51-15.18,59.66v216.37h-34.16
						l34.16,78.42V2447h78.47v-174.1l0.44-25.54h26.37l133.57,8.67V2447h78.47v-580.43h-187.31
						C1133.47,1866.57,1109.43,1872,1090.35,1882.68z M1245.1,1922.12h25.54v278.93h-160.38v-188.17c0-15.67,0-63.33,32.54-80.74
						c14.04-7.43,35.77-10.9,68.36-10.9C1221.51,1921.25,1233.09,1921.55,1245.1,1922.12z"/>
					<polygon class="st15" points="1463.67,2201.06 1429.51,2201.06 1463.67,2279.47 1463.67,2447 1542.14,2447 1542.14,2245.52 
						1714.02,2257.42 1714.02,2201.06 1542.14,2201.06 1542.14,1911.04 1714.02,1922.93 1714.02,1866.57 1463.67,1866.57 					"/>
					<polygon class="st15" points="1790.7,1902.37 1846.19,1899.72 1846.19,2408.16 1774.9,2413.36 1790.63,2447 1989.89,2447 
						1989.89,2406.8 1924.67,2405.48 1924.67,1899.91 1989.89,1902.55 1989.89,1866.61 1775.13,1866.94 					"/>
					<path class="st15" d="M2226.09,1866.57c-28.33,0-52.37,5.43-71.46,16.11c-19.1,10.71-33.29,24.56-43.38,42.35
						c-10.22,18-15.18,37.51-15.18,59.66v216.37h-34.16l34.16,78.42V2447h78.47v-174.1l0.44-25.54h26.37l133.57,8.67V2447h78.47
						v-580.43H2226.09z M2334.93,2201.06h-160.38v-188.17c0-15.67,0-63.33,32.54-80.74c14.04-7.43,35.77-10.9,68.36-10.9
						c10.35,0,21.92,0.3,33.93,0.87h25.54V2201.06z"/>
				</g>
			</g>
		</g>
	</g>
</g>
</svg>
